G04 EAGLE Gerber RS-274X export*
G75*
%MOMM*%
%FSLAX34Y34*%
%LPD*%
%INSoldermask Top*%
%IPPOS*%
%AMOC8*
5,1,8,0,0,1.08239X$1,22.5*%
G01*
%ADD10C,2.100000*%
%ADD11C,14.000000*%
%ADD12C,1.676400*%
%ADD13C,3.302000*%
%ADD14R,1.524000X1.524000*%
%ADD15C,1.524000*%
%ADD16R,2.550000X2.550000*%
%ADD17C,2.550000*%
%ADD18R,1.500000X1.300000*%
%ADD19R,1.100000X1.000000*%
%ADD20R,0.600000X1.000000*%
%ADD21R,1.000000X1.100000*%
%ADD22R,1.311800X0.551800*%
%ADD23R,1.071800X1.061800*%
%ADD24R,1.200000X2.000000*%
%ADD25R,1.000000X2.400000*%
%ADD26C,2.400000*%
%ADD27C,1.200000*%
%ADD28C,1.950000*%
%ADD29R,3.000000X1.600000*%
%ADD30R,6.000000X6.000000*%
%ADD31R,1.260700X0.551800*%
%ADD32C,1.400000*%
%ADD33C,1.500000*%
%ADD34R,0.804800X0.804800*%
%ADD35C,0.804800*%
%ADD36C,1.050000*%
%ADD37R,1.050000X1.050000*%
%ADD38R,1.180100X0.609200*%
%ADD39P,1.649562X8X22.500000*%
%ADD40C,1.524000*%

G36*
X1280095Y139014D02*
X1280095Y139014D01*
X1280191Y139019D01*
X1280234Y139034D01*
X1280279Y139041D01*
X1280367Y139080D01*
X1280458Y139112D01*
X1280492Y139137D01*
X1280536Y139157D01*
X1280634Y139240D01*
X1280707Y139293D01*
X1290707Y149293D01*
X1290724Y149316D01*
X1290743Y149333D01*
X1290776Y149384D01*
X1290829Y149442D01*
X1290849Y149483D01*
X1290876Y149519D01*
X1290891Y149558D01*
X1290897Y149569D01*
X1290909Y149608D01*
X1290910Y149609D01*
X1290952Y149695D01*
X1290958Y149737D01*
X1290975Y149783D01*
X1290980Y149838D01*
X1290980Y149840D01*
X1290985Y149911D01*
X1290999Y150000D01*
X1290999Y165000D01*
X1290990Y165062D01*
X1290991Y165109D01*
X1290991Y165110D01*
X1290991Y165128D01*
X1290970Y165203D01*
X1290959Y165279D01*
X1290933Y165338D01*
X1290916Y165400D01*
X1290875Y165466D01*
X1290843Y165536D01*
X1290801Y165585D01*
X1290768Y165640D01*
X1290710Y165692D01*
X1290660Y165750D01*
X1290606Y165786D01*
X1290558Y165829D01*
X1290489Y165862D01*
X1290424Y165905D01*
X1290362Y165924D01*
X1290305Y165952D01*
X1290235Y165963D01*
X1290154Y165987D01*
X1290069Y165988D01*
X1290000Y165999D01*
X1047500Y165999D01*
X1047436Y165990D01*
X1047372Y165991D01*
X1047297Y165970D01*
X1047221Y165959D01*
X1047162Y165933D01*
X1047100Y165916D01*
X1047034Y165875D01*
X1046964Y165843D01*
X1046915Y165801D01*
X1046860Y165768D01*
X1046808Y165710D01*
X1046750Y165660D01*
X1046714Y165606D01*
X1046671Y165558D01*
X1046638Y165489D01*
X1046595Y165424D01*
X1046576Y165362D01*
X1046548Y165305D01*
X1046537Y165235D01*
X1046513Y165154D01*
X1046512Y165069D01*
X1046501Y165000D01*
X1046501Y140000D01*
X1046510Y139936D01*
X1046509Y139872D01*
X1046530Y139797D01*
X1046541Y139721D01*
X1046567Y139662D01*
X1046584Y139600D01*
X1046625Y139534D01*
X1046657Y139464D01*
X1046699Y139415D01*
X1046732Y139360D01*
X1046790Y139308D01*
X1046840Y139250D01*
X1046894Y139214D01*
X1046942Y139171D01*
X1047011Y139138D01*
X1047076Y139095D01*
X1047138Y139076D01*
X1047195Y139048D01*
X1047265Y139037D01*
X1047346Y139013D01*
X1047431Y139012D01*
X1047500Y139001D01*
X1280000Y139001D01*
X1280095Y139014D01*
G37*
G36*
X770095Y136014D02*
X770095Y136014D01*
X770191Y136019D01*
X770234Y136034D01*
X770279Y136041D01*
X770367Y136080D01*
X770458Y136112D01*
X770492Y136137D01*
X770536Y136157D01*
X770634Y136240D01*
X770707Y136293D01*
X771414Y137001D01*
X859000Y137001D01*
X859064Y137010D01*
X859128Y137009D01*
X859203Y137030D01*
X859279Y137041D01*
X859338Y137067D01*
X859400Y137084D01*
X859466Y137125D01*
X859536Y137157D01*
X859585Y137199D01*
X859640Y137232D01*
X859692Y137290D01*
X859750Y137340D01*
X859786Y137394D01*
X859829Y137442D01*
X859862Y137511D01*
X859905Y137576D01*
X859924Y137638D01*
X859952Y137695D01*
X859963Y137765D01*
X859987Y137846D01*
X859988Y137931D01*
X859999Y138000D01*
X859999Y165000D01*
X859990Y165062D01*
X859991Y165107D01*
X859991Y165108D01*
X859991Y165128D01*
X859970Y165203D01*
X859959Y165279D01*
X859933Y165338D01*
X859916Y165400D01*
X859875Y165466D01*
X859843Y165536D01*
X859801Y165585D01*
X859768Y165640D01*
X859710Y165692D01*
X859660Y165750D01*
X859606Y165786D01*
X859558Y165829D01*
X859489Y165862D01*
X859424Y165905D01*
X859362Y165924D01*
X859305Y165952D01*
X859235Y165963D01*
X859154Y165987D01*
X859069Y165988D01*
X859000Y165999D01*
X732000Y165999D01*
X731936Y165990D01*
X731872Y165991D01*
X731797Y165970D01*
X731721Y165959D01*
X731662Y165933D01*
X731600Y165916D01*
X731534Y165875D01*
X731464Y165843D01*
X731415Y165801D01*
X731360Y165768D01*
X731308Y165710D01*
X731250Y165660D01*
X731214Y165606D01*
X731171Y165558D01*
X731138Y165489D01*
X731095Y165424D01*
X731076Y165362D01*
X731048Y165305D01*
X731037Y165235D01*
X731013Y165154D01*
X731012Y165069D01*
X731001Y165000D01*
X731001Y137000D01*
X731010Y136936D01*
X731009Y136872D01*
X731030Y136797D01*
X731041Y136721D01*
X731067Y136662D01*
X731084Y136600D01*
X731125Y136534D01*
X731157Y136464D01*
X731199Y136415D01*
X731232Y136360D01*
X731290Y136308D01*
X731340Y136250D01*
X731394Y136214D01*
X731442Y136171D01*
X731511Y136138D01*
X731576Y136095D01*
X731638Y136076D01*
X731695Y136048D01*
X731765Y136037D01*
X731846Y136013D01*
X731931Y136012D01*
X732000Y136001D01*
X770000Y136001D01*
X770095Y136014D01*
G37*
D10*
X1355000Y300000D03*
X1355000Y60000D03*
D11*
X-40000Y180000D03*
D10*
X770000Y340000D03*
X770000Y20000D03*
D12*
X681882Y154600D02*
X665118Y154600D01*
X665118Y180000D02*
X681882Y180000D01*
X681882Y205400D02*
X665118Y205400D01*
D13*
X498240Y180000D03*
D14*
X1462500Y40000D03*
D15*
X1487500Y40000D03*
X1512500Y40000D03*
X1537500Y40000D03*
D14*
X1537500Y320000D03*
D15*
X1512500Y320000D03*
X1487500Y320000D03*
X1462500Y320000D03*
D16*
X1269600Y80000D03*
D17*
X1230000Y80000D03*
X1190400Y80000D03*
D16*
X1269600Y270000D03*
D17*
X1230000Y270000D03*
X1190400Y270000D03*
D18*
X707500Y149500D03*
X707500Y168500D03*
X707500Y209500D03*
X707500Y190500D03*
D19*
X683500Y130000D03*
X666500Y130000D03*
X210000Y243500D03*
X210000Y226500D03*
D20*
X89000Y140000D03*
X72000Y140000D03*
D21*
X101500Y140000D03*
X118500Y140000D03*
D22*
X292500Y233650D03*
X292500Y246350D03*
X227500Y246350D03*
X227500Y233650D03*
D23*
X425000Y221250D03*
X425000Y188750D03*
D19*
X315000Y250500D03*
X315000Y233500D03*
D23*
X400000Y221250D03*
X400000Y188750D03*
D19*
X81500Y210000D03*
X98500Y210000D03*
D24*
X111000Y237000D03*
D25*
X96000Y237000D03*
D24*
X81000Y237000D03*
D26*
X362500Y180000D03*
X362500Y130000D03*
D19*
X377500Y204000D03*
X377500Y221000D03*
D20*
X89000Y90000D03*
X72000Y90000D03*
D21*
X101500Y90000D03*
X118500Y90000D03*
D20*
X89000Y115000D03*
X72000Y115000D03*
D21*
X101500Y115000D03*
X118500Y115000D03*
D16*
X360000Y290200D03*
D17*
X360000Y329800D03*
D21*
X430000Y301500D03*
X430000Y318500D03*
D16*
X360000Y69800D03*
D17*
X360000Y30200D03*
D21*
X430000Y58500D03*
X430000Y41500D03*
D27*
X1614000Y230000D02*
X1626000Y230000D01*
X1626000Y250000D02*
X1614000Y250000D01*
X1614000Y270000D02*
X1626000Y270000D01*
D28*
X1620000Y208000D03*
X1620000Y292000D03*
D22*
X1572500Y238650D03*
X1572500Y251350D03*
X1507500Y251350D03*
X1507500Y238650D03*
D21*
X1568500Y220000D03*
X1551500Y220000D03*
D29*
X1275000Y203000D03*
X1275000Y157000D03*
D30*
X1360000Y180000D03*
D19*
X1485000Y253500D03*
X1485000Y236500D03*
D16*
X1099800Y80000D03*
D17*
X1060200Y80000D03*
D16*
X1099800Y270000D03*
D17*
X1060200Y270000D03*
D21*
X1135000Y123500D03*
X1135000Y106500D03*
D31*
X187756Y230950D03*
X187756Y243650D03*
X187756Y256350D03*
X187756Y269050D03*
X132244Y269050D03*
X132244Y256350D03*
X132244Y243650D03*
X132244Y230950D03*
D14*
X187500Y35000D03*
D15*
X162500Y35000D03*
D24*
X110000Y265000D03*
D25*
X95000Y265000D03*
D24*
X80000Y265000D03*
D22*
X292500Y263650D03*
X292500Y276350D03*
X227500Y276350D03*
X227500Y263650D03*
D19*
X210000Y278500D03*
X210000Y261500D03*
D21*
X293500Y295000D03*
X276500Y295000D03*
X98500Y295000D03*
X81500Y295000D03*
X133500Y295000D03*
X116500Y295000D03*
D32*
X139500Y335000D03*
X80500Y335000D03*
D33*
X942500Y142500D02*
X957500Y142500D01*
X957500Y217500D02*
X942500Y217500D01*
X1587500Y110000D02*
X1587500Y95000D01*
X1587500Y45000D02*
X1587500Y30000D01*
X1632500Y95000D02*
X1632500Y110000D01*
X1632500Y45000D02*
X1632500Y30000D01*
D34*
X112500Y40000D03*
D35*
X87500Y40000D03*
D21*
X101500Y190000D03*
X118500Y190000D03*
D20*
X89000Y190000D03*
X71000Y190000D03*
D21*
X101500Y165000D03*
X118500Y165000D03*
D20*
X89000Y165000D03*
X71000Y165000D03*
D36*
X236000Y140000D03*
D37*
X160000Y140000D03*
D38*
X269245Y82500D03*
X269245Y101500D03*
X248755Y92000D03*
D21*
X299500Y106000D03*
X282500Y106000D03*
X282500Y85000D03*
X299500Y85000D03*
D39*
X811100Y297300D03*
X811100Y322700D03*
X836500Y297300D03*
X836500Y322700D03*
X861900Y297300D03*
X861900Y322700D03*
X887300Y297300D03*
X887300Y322700D03*
X912700Y297300D03*
X912700Y322700D03*
X938100Y297300D03*
X938100Y322700D03*
X963500Y297300D03*
X963500Y322700D03*
X988900Y297300D03*
X988900Y322700D03*
X811100Y37300D03*
X811100Y62700D03*
X836500Y37300D03*
X836500Y62700D03*
X861900Y37300D03*
X861900Y62700D03*
X887300Y37300D03*
X887300Y62700D03*
X912700Y37300D03*
X912700Y62700D03*
X938100Y37300D03*
X938100Y62700D03*
X963500Y37300D03*
X963500Y62700D03*
X988900Y37300D03*
X988900Y62700D03*
D40*
X1712380Y281600D02*
X1727620Y281600D01*
X1727620Y256200D02*
X1712380Y256200D01*
X1712380Y230800D02*
X1727620Y230800D01*
X1727620Y205400D02*
X1712380Y205400D01*
X1712380Y180000D02*
X1727620Y180000D01*
X1727620Y154600D02*
X1712380Y154600D01*
X1712380Y129200D02*
X1727620Y129200D01*
X1727620Y103800D02*
X1712380Y103800D01*
X1712380Y78400D02*
X1727620Y78400D01*
M02*
