G04 EAGLE Gerber RS-274X export*
G75*
%MOMM*%
%FSLAX34Y34*%
%LPD*%
%INSoldermask Bottom*%
%IPPOS*%
%AMOC8*
5,1,8,0,0,1.08239X$1,22.5*%
G01*
%ADD10C,2.100000*%
%ADD11C,14.000000*%
%ADD12C,1.676400*%
%ADD13C,3.302000*%
%ADD14R,1.524000X1.524000*%
%ADD15C,1.524000*%
%ADD16R,2.550000X2.550000*%
%ADD17C,2.550000*%
%ADD18C,2.400000*%
%ADD19C,1.200000*%
%ADD20C,1.950000*%
%ADD21R,0.600000X1.000000*%
%ADD22R,1.000000X1.100000*%
%ADD23C,1.400000*%
%ADD24C,1.500000*%
%ADD25R,0.804800X0.804800*%
%ADD26C,0.804800*%
%ADD27C,1.050000*%
%ADD28R,1.050000X1.050000*%
%ADD29P,1.649562X8X22.500000*%
%ADD30C,1.524000*%

G36*
X810986Y247595D02*
X810986Y247595D01*
X810981Y247691D01*
X810966Y247734D01*
X810959Y247779D01*
X810920Y247867D01*
X810888Y247958D01*
X810863Y247992D01*
X810843Y248036D01*
X810760Y248134D01*
X810707Y248207D01*
X715707Y343207D01*
X715630Y343264D01*
X715558Y343329D01*
X715517Y343349D01*
X715481Y343376D01*
X715391Y343410D01*
X715305Y343452D01*
X715263Y343458D01*
X715217Y343475D01*
X715090Y343485D01*
X715000Y343499D01*
X360000Y343499D01*
X359954Y343493D01*
X359913Y343495D01*
X357742Y343306D01*
X357648Y343284D01*
X357571Y343275D01*
X355466Y342711D01*
X355377Y342673D01*
X355302Y342652D01*
X353328Y341731D01*
X353247Y341678D01*
X353177Y341644D01*
X351392Y340394D01*
X351321Y340328D01*
X351259Y340282D01*
X349718Y338741D01*
X349660Y338664D01*
X349606Y338608D01*
X348356Y336823D01*
X348316Y336743D01*
X348277Y336685D01*
X348269Y336672D01*
X347809Y335686D01*
X347809Y335685D01*
X347348Y334698D01*
X347320Y334605D01*
X347289Y334534D01*
X346725Y332429D01*
X346713Y332333D01*
X346694Y332258D01*
X346505Y330087D01*
X346510Y329991D01*
X346505Y329913D01*
X346694Y327742D01*
X346716Y327648D01*
X346725Y327571D01*
X347289Y325466D01*
X347327Y325377D01*
X347348Y325302D01*
X348269Y323328D01*
X348322Y323247D01*
X348356Y323177D01*
X349606Y321392D01*
X349672Y321321D01*
X349718Y321259D01*
X351259Y319718D01*
X351336Y319660D01*
X351392Y319606D01*
X353177Y318356D01*
X353263Y318312D01*
X353328Y318269D01*
X355302Y317348D01*
X355359Y317331D01*
X355376Y317323D01*
X355397Y317319D01*
X355466Y317289D01*
X357571Y316725D01*
X357667Y316713D01*
X357742Y316694D01*
X359913Y316505D01*
X359959Y316507D01*
X360000Y316501D01*
X699586Y316501D01*
X784001Y232086D01*
X784001Y127914D01*
X699586Y43499D01*
X360000Y43499D01*
X359954Y43493D01*
X359913Y43495D01*
X357742Y43306D01*
X357648Y43284D01*
X357571Y43275D01*
X355466Y42711D01*
X355377Y42673D01*
X355302Y42652D01*
X353328Y41731D01*
X353247Y41678D01*
X353177Y41644D01*
X351392Y40394D01*
X351321Y40328D01*
X351259Y40282D01*
X349718Y38741D01*
X349660Y38664D01*
X349606Y38608D01*
X348356Y36823D01*
X348312Y36737D01*
X348269Y36672D01*
X347448Y34911D01*
X347348Y34698D01*
X347320Y34605D01*
X347289Y34534D01*
X346725Y32429D01*
X346713Y32333D01*
X346694Y32258D01*
X346505Y30087D01*
X346510Y29991D01*
X346505Y29913D01*
X346694Y27742D01*
X346716Y27648D01*
X346725Y27571D01*
X347289Y25466D01*
X347327Y25377D01*
X347348Y25302D01*
X348269Y23328D01*
X348322Y23247D01*
X348356Y23177D01*
X349606Y21392D01*
X349672Y21321D01*
X349718Y21259D01*
X351259Y19718D01*
X351336Y19660D01*
X351392Y19606D01*
X353177Y18356D01*
X353263Y18312D01*
X353328Y18269D01*
X355302Y17348D01*
X355395Y17320D01*
X355466Y17289D01*
X357571Y16725D01*
X357667Y16713D01*
X357742Y16694D01*
X359913Y16505D01*
X359959Y16507D01*
X360000Y16501D01*
X715000Y16501D01*
X715095Y16514D01*
X715191Y16519D01*
X715234Y16534D01*
X715279Y16541D01*
X715367Y16580D01*
X715458Y16612D01*
X715492Y16637D01*
X715536Y16657D01*
X715634Y16740D01*
X715707Y16793D01*
X810707Y111793D01*
X810764Y111870D01*
X810829Y111942D01*
X810849Y111983D01*
X810876Y112019D01*
X810910Y112109D01*
X810952Y112195D01*
X810958Y112237D01*
X810975Y112283D01*
X810985Y112411D01*
X810999Y112500D01*
X810999Y194001D01*
X1162500Y194001D01*
X1162595Y194014D01*
X1162691Y194019D01*
X1162734Y194034D01*
X1162779Y194041D01*
X1162867Y194080D01*
X1162958Y194112D01*
X1162992Y194137D01*
X1163036Y194157D01*
X1163134Y194240D01*
X1163207Y194293D01*
X1203207Y234293D01*
X1203217Y234307D01*
X1203220Y234310D01*
X1203229Y234324D01*
X1203264Y234370D01*
X1203329Y234442D01*
X1203349Y234483D01*
X1203376Y234519D01*
X1203410Y234609D01*
X1203452Y234695D01*
X1203458Y234737D01*
X1203475Y234783D01*
X1203485Y234911D01*
X1203499Y235000D01*
X1203499Y270000D01*
X1203493Y270046D01*
X1203495Y270087D01*
X1203306Y272258D01*
X1203284Y272352D01*
X1203275Y272429D01*
X1202711Y274534D01*
X1202673Y274623D01*
X1202652Y274698D01*
X1201731Y276672D01*
X1201678Y276753D01*
X1201644Y276823D01*
X1200394Y278608D01*
X1200328Y278679D01*
X1200282Y278741D01*
X1198741Y280282D01*
X1198664Y280340D01*
X1198608Y280394D01*
X1196823Y281644D01*
X1196737Y281688D01*
X1196672Y281731D01*
X1194698Y282652D01*
X1194605Y282680D01*
X1194534Y282711D01*
X1192429Y283275D01*
X1192333Y283287D01*
X1192258Y283306D01*
X1190087Y283495D01*
X1189991Y283490D01*
X1189913Y283495D01*
X1187742Y283306D01*
X1187648Y283284D01*
X1187571Y283275D01*
X1185466Y282711D01*
X1185377Y282673D01*
X1185302Y282652D01*
X1183328Y281731D01*
X1183247Y281678D01*
X1183177Y281644D01*
X1181392Y280394D01*
X1181321Y280328D01*
X1181259Y280282D01*
X1179718Y278741D01*
X1179660Y278664D01*
X1179606Y278608D01*
X1178356Y276823D01*
X1178312Y276737D01*
X1178269Y276672D01*
X1177659Y275364D01*
X1177348Y274698D01*
X1177320Y274605D01*
X1177289Y274534D01*
X1176725Y272429D01*
X1176713Y272333D01*
X1176694Y272258D01*
X1176505Y270087D01*
X1176507Y270041D01*
X1176501Y270000D01*
X1176501Y250414D01*
X1147086Y220999D01*
X973414Y220999D01*
X964707Y229707D01*
X964630Y229764D01*
X964558Y229829D01*
X964517Y229849D01*
X964481Y229876D01*
X964391Y229910D01*
X964305Y229952D01*
X964263Y229958D01*
X964217Y229975D01*
X964090Y229985D01*
X964000Y229999D01*
X935000Y229999D01*
X934905Y229986D01*
X934809Y229981D01*
X934766Y229966D01*
X934721Y229959D01*
X934633Y229920D01*
X934542Y229888D01*
X934508Y229863D01*
X934464Y229843D01*
X934367Y229760D01*
X934293Y229707D01*
X925586Y220999D01*
X810999Y220999D01*
X810999Y247500D01*
X810986Y247595D01*
G37*
G36*
X690095Y56514D02*
X690095Y56514D01*
X690191Y56519D01*
X690234Y56534D01*
X690279Y56541D01*
X690367Y56580D01*
X690458Y56612D01*
X690492Y56637D01*
X690536Y56657D01*
X690634Y56740D01*
X690707Y56793D01*
X770707Y136793D01*
X770764Y136870D01*
X770829Y136942D01*
X770849Y136983D01*
X770876Y137019D01*
X770910Y137109D01*
X770952Y137195D01*
X770958Y137237D01*
X770975Y137283D01*
X770985Y137411D01*
X770999Y137500D01*
X770999Y165000D01*
X770986Y165095D01*
X770981Y165191D01*
X770966Y165234D01*
X770959Y165279D01*
X770920Y165367D01*
X770888Y165458D01*
X770863Y165492D01*
X770843Y165536D01*
X770760Y165634D01*
X770707Y165707D01*
X758499Y177914D01*
X758499Y235000D01*
X758486Y235095D01*
X758481Y235191D01*
X758466Y235234D01*
X758459Y235279D01*
X758420Y235367D01*
X758388Y235458D01*
X758363Y235492D01*
X758343Y235536D01*
X758260Y235634D01*
X758207Y235707D01*
X690707Y303207D01*
X690630Y303264D01*
X690558Y303329D01*
X690517Y303349D01*
X690481Y303376D01*
X690391Y303410D01*
X690305Y303452D01*
X690263Y303458D01*
X690217Y303475D01*
X690090Y303485D01*
X690000Y303499D01*
X347500Y303499D01*
X347436Y303490D01*
X347372Y303491D01*
X347297Y303470D01*
X347221Y303459D01*
X347162Y303433D01*
X347100Y303416D01*
X347034Y303375D01*
X346964Y303343D01*
X346915Y303301D01*
X346860Y303268D01*
X346808Y303210D01*
X346750Y303160D01*
X346714Y303106D01*
X346671Y303058D01*
X346638Y302989D01*
X346595Y302924D01*
X346576Y302862D01*
X346548Y302805D01*
X346537Y302735D01*
X346513Y302654D01*
X346512Y302569D01*
X346501Y302500D01*
X346501Y277500D01*
X346510Y277436D01*
X346509Y277372D01*
X346530Y277297D01*
X346541Y277221D01*
X346567Y277162D01*
X346584Y277100D01*
X346625Y277034D01*
X346657Y276964D01*
X346699Y276915D01*
X346732Y276860D01*
X346790Y276808D01*
X346840Y276750D01*
X346894Y276714D01*
X346942Y276671D01*
X347011Y276638D01*
X347076Y276595D01*
X347138Y276576D01*
X347195Y276548D01*
X347265Y276537D01*
X347346Y276513D01*
X347431Y276512D01*
X347500Y276501D01*
X674586Y276501D01*
X731501Y219586D01*
X731501Y140414D01*
X674586Y83499D01*
X347500Y83499D01*
X347436Y83490D01*
X347372Y83491D01*
X347297Y83470D01*
X347221Y83459D01*
X347162Y83433D01*
X347100Y83416D01*
X347034Y83375D01*
X346964Y83343D01*
X346915Y83301D01*
X346860Y83268D01*
X346808Y83210D01*
X346750Y83160D01*
X346714Y83106D01*
X346671Y83058D01*
X346638Y82989D01*
X346595Y82924D01*
X346576Y82862D01*
X346548Y82805D01*
X346537Y82735D01*
X346513Y82654D01*
X346512Y82569D01*
X346501Y82500D01*
X346501Y57500D01*
X346510Y57436D01*
X346509Y57372D01*
X346530Y57297D01*
X346541Y57221D01*
X346567Y57162D01*
X346584Y57100D01*
X346625Y57034D01*
X346657Y56964D01*
X346699Y56915D01*
X346732Y56860D01*
X346790Y56808D01*
X346840Y56750D01*
X346894Y56714D01*
X346942Y56671D01*
X347011Y56638D01*
X347076Y56595D01*
X347138Y56576D01*
X347195Y56548D01*
X347265Y56537D01*
X347346Y56513D01*
X347431Y56512D01*
X347500Y56501D01*
X690000Y56501D01*
X690095Y56514D01*
G37*
G36*
X1112564Y66510D02*
X1112564Y66510D01*
X1112628Y66509D01*
X1112703Y66530D01*
X1112779Y66541D01*
X1112838Y66567D01*
X1112900Y66584D01*
X1112966Y66625D01*
X1113036Y66657D01*
X1113085Y66699D01*
X1113140Y66732D01*
X1113192Y66790D01*
X1113250Y66840D01*
X1113286Y66894D01*
X1113329Y66942D01*
X1113362Y67011D01*
X1113405Y67076D01*
X1113424Y67138D01*
X1113452Y67195D01*
X1113463Y67265D01*
X1113487Y67346D01*
X1113488Y67431D01*
X1113499Y67500D01*
X1113499Y137140D01*
X1113536Y137157D01*
X1113585Y137199D01*
X1113640Y137232D01*
X1113692Y137290D01*
X1113750Y137340D01*
X1113786Y137394D01*
X1113829Y137442D01*
X1113862Y137511D01*
X1113905Y137576D01*
X1113924Y137638D01*
X1113952Y137695D01*
X1113963Y137765D01*
X1113987Y137846D01*
X1113988Y137931D01*
X1113999Y138000D01*
X1113999Y165000D01*
X1113991Y165061D01*
X1113991Y165102D01*
X1113991Y165103D01*
X1113991Y165128D01*
X1113970Y165203D01*
X1113959Y165279D01*
X1113933Y165338D01*
X1113916Y165400D01*
X1113875Y165466D01*
X1113843Y165536D01*
X1113801Y165585D01*
X1113768Y165640D01*
X1113710Y165692D01*
X1113660Y165750D01*
X1113606Y165786D01*
X1113558Y165829D01*
X1113489Y165862D01*
X1113424Y165905D01*
X1113362Y165924D01*
X1113305Y165952D01*
X1113235Y165963D01*
X1113154Y165987D01*
X1113069Y165988D01*
X1113000Y165999D01*
X818000Y165999D01*
X817936Y165990D01*
X817872Y165991D01*
X817797Y165970D01*
X817721Y165959D01*
X817662Y165933D01*
X817600Y165916D01*
X817534Y165875D01*
X817464Y165843D01*
X817415Y165801D01*
X817360Y165768D01*
X817308Y165710D01*
X817250Y165660D01*
X817214Y165606D01*
X817171Y165558D01*
X817138Y165489D01*
X817095Y165424D01*
X817076Y165362D01*
X817048Y165305D01*
X817037Y165235D01*
X817013Y165154D01*
X817012Y165069D01*
X817001Y165000D01*
X817001Y138000D01*
X817010Y137936D01*
X817009Y137872D01*
X817030Y137797D01*
X817041Y137721D01*
X817067Y137662D01*
X817084Y137600D01*
X817125Y137534D01*
X817157Y137464D01*
X817199Y137415D01*
X817232Y137360D01*
X817290Y137308D01*
X817340Y137250D01*
X817394Y137214D01*
X817442Y137171D01*
X817511Y137138D01*
X817576Y137095D01*
X817638Y137076D01*
X817695Y137048D01*
X817765Y137037D01*
X817846Y137013D01*
X817931Y137012D01*
X818000Y137001D01*
X926586Y137001D01*
X934293Y129293D01*
X934370Y129236D01*
X934442Y129171D01*
X934483Y129151D01*
X934519Y129124D01*
X934609Y129090D01*
X934695Y129048D01*
X934737Y129042D01*
X934783Y129025D01*
X934911Y129015D01*
X935000Y129001D01*
X970000Y129001D01*
X970095Y129014D01*
X970191Y129019D01*
X970234Y129034D01*
X970279Y129041D01*
X970367Y129080D01*
X970458Y129112D01*
X970492Y129137D01*
X970536Y129157D01*
X970634Y129240D01*
X970707Y129293D01*
X978414Y137001D01*
X1046501Y137001D01*
X1046501Y80000D01*
X1046507Y79954D01*
X1046505Y79913D01*
X1046694Y77742D01*
X1046716Y77648D01*
X1046725Y77571D01*
X1047289Y75466D01*
X1047327Y75377D01*
X1047348Y75302D01*
X1048269Y73328D01*
X1048322Y73247D01*
X1048356Y73177D01*
X1049606Y71392D01*
X1049672Y71321D01*
X1049718Y71259D01*
X1051259Y69718D01*
X1051336Y69660D01*
X1051392Y69606D01*
X1053177Y68356D01*
X1053263Y68312D01*
X1053328Y68269D01*
X1055302Y67348D01*
X1055395Y67320D01*
X1055466Y67289D01*
X1057571Y66725D01*
X1057667Y66713D01*
X1057742Y66694D01*
X1059913Y66505D01*
X1059959Y66507D01*
X1060000Y66501D01*
X1112500Y66501D01*
X1112564Y66510D01*
G37*
G36*
X1192237Y66932D02*
X1192237Y66932D01*
X1192267Y66939D01*
X1192368Y66955D01*
X1194472Y67519D01*
X1194501Y67531D01*
X1194518Y67537D01*
X1194534Y67540D01*
X1194549Y67548D01*
X1194597Y67564D01*
X1196572Y68485D01*
X1196598Y68502D01*
X1196687Y68551D01*
X1198471Y69801D01*
X1198494Y69823D01*
X1198573Y69886D01*
X1200114Y71427D01*
X1200132Y71452D01*
X1200199Y71529D01*
X1201449Y73313D01*
X1201463Y73342D01*
X1201515Y73428D01*
X1202436Y75403D01*
X1202445Y75433D01*
X1202481Y75528D01*
X1203045Y77632D01*
X1203049Y77664D01*
X1203068Y77763D01*
X1203258Y79934D01*
X1203257Y79958D01*
X1203261Y80000D01*
X1203261Y134685D01*
X1283038Y214462D01*
X1283091Y214536D01*
X1283151Y214605D01*
X1283163Y214635D01*
X1283182Y214661D01*
X1283209Y214748D01*
X1283243Y214833D01*
X1283247Y214874D01*
X1283254Y214897D01*
X1283253Y214929D01*
X1283261Y215000D01*
X1283261Y282500D01*
X1283258Y282520D01*
X1283260Y282539D01*
X1283238Y282641D01*
X1283222Y282743D01*
X1283212Y282760D01*
X1283208Y282780D01*
X1283155Y282869D01*
X1283106Y282960D01*
X1283092Y282974D01*
X1283082Y282991D01*
X1283003Y283058D01*
X1282928Y283130D01*
X1282910Y283138D01*
X1282895Y283151D01*
X1282799Y283190D01*
X1282705Y283233D01*
X1282685Y283235D01*
X1282667Y283243D01*
X1282500Y283261D01*
X1257500Y283261D01*
X1257480Y283258D01*
X1257461Y283260D01*
X1257359Y283238D01*
X1257257Y283222D01*
X1257240Y283212D01*
X1257220Y283208D01*
X1257131Y283155D01*
X1257040Y283106D01*
X1257026Y283092D01*
X1257009Y283082D01*
X1256942Y283003D01*
X1256871Y282928D01*
X1256862Y282910D01*
X1256849Y282895D01*
X1256810Y282799D01*
X1256767Y282705D01*
X1256765Y282685D01*
X1256757Y282667D01*
X1256739Y282500D01*
X1256739Y225315D01*
X1176962Y145538D01*
X1176909Y145464D01*
X1176849Y145395D01*
X1176837Y145365D01*
X1176818Y145339D01*
X1176791Y145252D01*
X1176757Y145167D01*
X1176753Y145126D01*
X1176746Y145103D01*
X1176747Y145071D01*
X1176739Y145000D01*
X1176739Y80000D01*
X1176743Y79976D01*
X1176742Y79934D01*
X1176932Y77763D01*
X1176939Y77733D01*
X1176955Y77632D01*
X1177519Y75528D01*
X1177531Y75499D01*
X1177564Y75403D01*
X1178485Y73428D01*
X1178502Y73402D01*
X1178551Y73313D01*
X1179801Y71529D01*
X1179823Y71506D01*
X1179886Y71427D01*
X1181427Y69886D01*
X1181452Y69868D01*
X1181529Y69801D01*
X1183313Y68551D01*
X1183342Y68538D01*
X1183428Y68485D01*
X1185403Y67564D01*
X1185433Y67555D01*
X1185528Y67519D01*
X1187632Y66955D01*
X1187664Y66951D01*
X1187763Y66932D01*
X1189934Y66742D01*
X1189965Y66744D01*
X1190066Y66742D01*
X1192237Y66932D01*
G37*
G36*
X1282520Y66742D02*
X1282520Y66742D01*
X1282539Y66740D01*
X1282641Y66762D01*
X1282743Y66779D01*
X1282760Y66788D01*
X1282780Y66792D01*
X1282869Y66845D01*
X1282960Y66894D01*
X1282974Y66908D01*
X1282991Y66918D01*
X1283058Y66997D01*
X1283130Y67072D01*
X1283138Y67090D01*
X1283151Y67105D01*
X1283190Y67201D01*
X1283233Y67295D01*
X1283235Y67315D01*
X1283243Y67333D01*
X1283261Y67500D01*
X1283261Y142185D01*
X1303038Y161962D01*
X1303091Y162036D01*
X1303151Y162105D01*
X1303163Y162135D01*
X1303182Y162161D01*
X1303209Y162248D01*
X1303243Y162333D01*
X1303247Y162374D01*
X1303254Y162397D01*
X1303253Y162429D01*
X1303261Y162500D01*
X1303261Y195000D01*
X1303258Y195020D01*
X1303260Y195039D01*
X1303238Y195141D01*
X1303222Y195243D01*
X1303212Y195260D01*
X1303208Y195280D01*
X1303155Y195369D01*
X1303106Y195460D01*
X1303092Y195474D01*
X1303082Y195491D01*
X1303003Y195558D01*
X1302928Y195630D01*
X1302910Y195638D01*
X1302895Y195651D01*
X1302799Y195690D01*
X1302705Y195733D01*
X1302685Y195735D01*
X1302667Y195743D01*
X1302500Y195761D01*
X1297500Y195761D01*
X1297410Y195747D01*
X1297319Y195739D01*
X1297289Y195727D01*
X1297257Y195722D01*
X1297177Y195679D01*
X1297093Y195643D01*
X1297061Y195617D01*
X1297040Y195606D01*
X1297018Y195583D01*
X1296962Y195538D01*
X1256962Y155538D01*
X1256909Y155464D01*
X1256849Y155395D01*
X1256837Y155365D01*
X1256818Y155339D01*
X1256791Y155252D01*
X1256757Y155167D01*
X1256753Y155126D01*
X1256746Y155103D01*
X1256747Y155071D01*
X1256739Y155000D01*
X1256739Y67500D01*
X1256742Y67480D01*
X1256740Y67461D01*
X1256762Y67359D01*
X1256779Y67257D01*
X1256788Y67240D01*
X1256792Y67220D01*
X1256845Y67131D01*
X1256894Y67040D01*
X1256908Y67026D01*
X1256918Y67009D01*
X1256997Y66942D01*
X1257072Y66871D01*
X1257090Y66862D01*
X1257105Y66849D01*
X1257201Y66810D01*
X1257295Y66767D01*
X1257315Y66765D01*
X1257333Y66757D01*
X1257500Y66739D01*
X1282500Y66739D01*
X1282520Y66742D01*
G37*
D10*
X1355000Y300000D03*
X1355000Y60000D03*
D11*
X-40000Y180000D03*
D10*
X770000Y340000D03*
X770000Y20000D03*
D12*
X681882Y154600D02*
X665118Y154600D01*
X665118Y180000D02*
X681882Y180000D01*
X681882Y205400D02*
X665118Y205400D01*
D13*
X498240Y180000D03*
D14*
X1462500Y40000D03*
D15*
X1487500Y40000D03*
X1512500Y40000D03*
X1537500Y40000D03*
D14*
X1537500Y320000D03*
D15*
X1512500Y320000D03*
X1487500Y320000D03*
X1462500Y320000D03*
D16*
X1269600Y80000D03*
D17*
X1230000Y80000D03*
X1190400Y80000D03*
D16*
X1269600Y270000D03*
D17*
X1230000Y270000D03*
X1190400Y270000D03*
D18*
X362500Y180000D03*
X362500Y130000D03*
D16*
X360000Y290200D03*
D17*
X360000Y329800D03*
D16*
X360000Y69800D03*
D17*
X360000Y30200D03*
D19*
X1614000Y230000D02*
X1626000Y230000D01*
X1626000Y250000D02*
X1614000Y250000D01*
X1614000Y270000D02*
X1626000Y270000D01*
D20*
X1620000Y208000D03*
X1620000Y292000D03*
D16*
X1099800Y80000D03*
D17*
X1060200Y80000D03*
D16*
X1099800Y270000D03*
D17*
X1060200Y270000D03*
D21*
X1611000Y180000D03*
X1628000Y180000D03*
D22*
X1593500Y180000D03*
X1576500Y180000D03*
D14*
X187500Y35000D03*
D15*
X162500Y35000D03*
D23*
X139500Y335000D03*
X80500Y335000D03*
D24*
X942500Y142500D02*
X957500Y142500D01*
X957500Y217500D02*
X942500Y217500D01*
X1587500Y110000D02*
X1587500Y95000D01*
X1587500Y45000D02*
X1587500Y30000D01*
X1632500Y95000D02*
X1632500Y110000D01*
X1632500Y45000D02*
X1632500Y30000D01*
D25*
X112500Y40000D03*
D26*
X87500Y40000D03*
D27*
X236000Y140000D03*
D28*
X160000Y140000D03*
D29*
X811100Y297300D03*
X811100Y322700D03*
X836500Y297300D03*
X836500Y322700D03*
X861900Y297300D03*
X861900Y322700D03*
X887300Y297300D03*
X887300Y322700D03*
X912700Y297300D03*
X912700Y322700D03*
X938100Y297300D03*
X938100Y322700D03*
X963500Y297300D03*
X963500Y322700D03*
X988900Y297300D03*
X988900Y322700D03*
X811100Y37300D03*
X811100Y62700D03*
X836500Y37300D03*
X836500Y62700D03*
X861900Y37300D03*
X861900Y62700D03*
X887300Y37300D03*
X887300Y62700D03*
X912700Y37300D03*
X912700Y62700D03*
X938100Y37300D03*
X938100Y62700D03*
X963500Y37300D03*
X963500Y62700D03*
X988900Y37300D03*
X988900Y62700D03*
D30*
X1712380Y281600D02*
X1727620Y281600D01*
X1727620Y256200D02*
X1712380Y256200D01*
X1712380Y230800D02*
X1727620Y230800D01*
X1727620Y205400D02*
X1712380Y205400D01*
X1712380Y180000D02*
X1727620Y180000D01*
X1727620Y154600D02*
X1712380Y154600D01*
X1712380Y129200D02*
X1727620Y129200D01*
X1727620Y103800D02*
X1712380Y103800D01*
X1712380Y78400D02*
X1727620Y78400D01*
M02*
