M48
;GenerationSoftware,Autodesk,EAGLE,9.6.2*%
;CreationDate,2023-07-12T02:26:59Z*%
FMAT,2
ICI,OFF
METRIC,TZ,000.000
T13C0.350
T12C0.500
T11C0.700
T10C0.800
T9C1.000
T8C1.016
T7C1.118
T6C1.200
T5C1.300
T4C1.700
T3C2.100
T2C3.302
T1C14.000
%
G90
M71
T1
X-4000Y18000
T2
X49824Y18000
T3
X135500Y30000
X135500Y6000
X77000Y34000
X77000Y2000
T4
X123000Y27000
X36000Y32980
X36000Y6980
X36000Y3020
X106020Y8000
X109980Y27000
X106020Y27000
X126960Y8000
X123000Y8000
X119040Y8000
X126960Y27000
X109980Y8000
X119040Y27000
X36000Y29020
T5
X162000Y20800
X162000Y29200
T6
X36250Y18000
X36250Y13000
T7
X67350Y15460
X67350Y18000
X67350Y20540
T8
X146250Y4000
X172000Y7840
X151250Y4000
X153750Y4000
X153750Y32000
X151250Y32000
X148750Y32000
X146250Y32000
X148750Y4000
X172000Y28160
X172000Y25620
X172000Y23080
X18750Y3500
X16250Y3500
X172000Y20540
X172000Y18000
X172000Y15460
X172000Y12920
X172000Y10380
X86190Y32270
X81110Y29730
X81110Y32270
X83650Y29730
X83650Y32270
X86190Y29730
X88730Y29730
X88730Y32270
X91270Y29730
X91270Y32270
X93810Y29730
X93810Y32270
X96350Y29730
X96350Y32270
X98890Y29730
X98890Y32270
X81110Y3730
X81110Y6270
X83650Y3730
X83650Y6270
X86190Y3730
X86190Y6270
X88730Y3730
X88730Y6270
X91270Y3730
X91270Y6270
X93810Y3730
X93810Y6270
X96350Y3730
X96350Y6270
X98890Y3730
X98890Y6270
T9
X95000Y14250
X95000Y21750
X158750Y10250
X158750Y3750
X163250Y10250
X163250Y3750
T10
X162000Y23000
X162000Y25000
X162000Y27000
T11
X13950Y33500
X8050Y33500
X16000Y14000
X23600Y14000
T12
X11250Y4000
X8750Y4000
T13
X137000Y18500
X137000Y19500
X137000Y20500
X136250Y20000
X136250Y19000
X136250Y18000
X136250Y17000
X136250Y16000
X135500Y15500
X135500Y16500
X135500Y17500
X135500Y18500
X135500Y19500
X135500Y20500
X134750Y20000
X134750Y19000
X134750Y18000
X134750Y17000
X134750Y16000
X134000Y15500
X134000Y16500
X134000Y17500
X134000Y18500
X134000Y19500
X134000Y20500
X133250Y20000
X133250Y19000
X133250Y18000
X133250Y17000
X133250Y16000
X132500Y20500
X132500Y19500
X132500Y18500
X132500Y17500
X132500Y16500
X132500Y15500
X131750Y16000
X131750Y17000
X131750Y18000
X131750Y19000
X131750Y20000
X131000Y19500
X131000Y18500
X131000Y17500
X131000Y16500
X130250Y17000
X130250Y18000
X130250Y19000
X139250Y20000
X139250Y19000
X139250Y18000
X139250Y17000
X139250Y16000
X139250Y15000
X139250Y14000
X139250Y13000
X138500Y14500
X138500Y13500
X139250Y12000
X138500Y12500
X138500Y11500
X139250Y11000
X138500Y10500
X139250Y10000
X138500Y9500
X139250Y9000
X138500Y8500
X139250Y8000
X138500Y7500
X139250Y7000
X138500Y6500
X137750Y7000
X137750Y8000
X137750Y9000
X137000Y8500
X137000Y9500
X136250Y9000
X109750Y14500
X134750Y9000
X135500Y8500
X134000Y9500
X134000Y8500
X133250Y9000
X132500Y8500
X132500Y9500
X131750Y9000
X131750Y8000
X133250Y8000
X132500Y7500
X133250Y7000
X131750Y7000
X132500Y6500
X131750Y10000
X132500Y10500
X131750Y11000
X132500Y11500
X131750Y12000
X132500Y12500
X131750Y13000
X132500Y13500
X131750Y14000
X132500Y14500
X131750Y15000
X131750Y21000
X131750Y22000
X131750Y23000
X132500Y21500
X132500Y22500
X131750Y24000
X132500Y23500
X132500Y24500
X131750Y25000
X132500Y25500
X131750Y26000
X132500Y26500
X131750Y27000
X132500Y27500
X131750Y28000
X132500Y28500
X131750Y29000
X132500Y29500
X133250Y29000
X133250Y28000
X133250Y27000
X134000Y27500
X134000Y26500
X134750Y27000
X135500Y26500
X136250Y27000
X135500Y27500
X137000Y26500
X137000Y27500
X137750Y27000
X138500Y27500
X138500Y26500
X139250Y27000
X139250Y28000
X137750Y28000
X138500Y28500
X137750Y29000
X139250Y29000
X138500Y29500
X139250Y26000
X138500Y25500
X139250Y25000
X138500Y24500
X139250Y24000
X138500Y23500
X139250Y23000
X138500Y22500
X139250Y22000
X138500Y21500
X139250Y21000
X155150Y22000
X31000Y1000
X73500Y16250
X73500Y15500
X73500Y14750
X73500Y14000
X74250Y14000
X74250Y14750
X74250Y15500
X74250Y16250
X75000Y16250
X75000Y15500
X75000Y14750
X75000Y14000
X75750Y14000
X75750Y14750
X75750Y15500
X75750Y16250
X76500Y16250
X76500Y15500
X76500Y14750
X76500Y14000
X43000Y5850
X43000Y30150
X105250Y16000
X105250Y15250
X105250Y14500
X106000Y14500
X106000Y15250
X106000Y16000
X106750Y16000
X106750Y15250
X106750Y14500
X107500Y14500
X107500Y15250
X107500Y16000
X108250Y16000
X108250Y15250
X108250Y14500
X109000Y14500
X109000Y15250
X109000Y16000
X109750Y16000
X109750Y15250
X110500Y14500
X110500Y15250
X110500Y16000
X21000Y26150
X82100Y16250
X82100Y15550
X82100Y14850
X82100Y14150
X135500Y9500
X82800Y14150
X82800Y14850
X82800Y15550
X82800Y16250
X83500Y16250
X83500Y15550
X83500Y14850
X83500Y14150
X84200Y14150
X84200Y14850
X84200Y15550
X84200Y16250
X84900Y16250
X84900Y15550
X84900Y14850
X84900Y14150
X85600Y14150
X85600Y14850
X85600Y15550
X85600Y16250
X11850Y11500
X8100Y23700
X27650Y29500
X27500Y20000
X8150Y21000
X88000Y11000
X11850Y14000
X13500Y21000
X138500Y20500
X137750Y20000
X138500Y19500
X137750Y19000
X138500Y18500
X137750Y18000
X138500Y17500
X137750Y17000
X138500Y16500
X137750Y16000
X138500Y15500
X137000Y15500
X137000Y16500
X137000Y17500
M30